<?xml version="1.0" encoding="utf-8"?>
<!-- Generator: Adobe Illustrator 18.0.0, SVG Export Plug-In . SVG Version: 6.00 Build 0)  -->
<!DOCTYPE svg PUBLIC "-//W3C//DTD SVG 1.1//EN" "http://www.w3.org/Graphics/SVG/1.1/DTD/svg11.dtd">
<svg version="1.1" id="Capa_1" xmlns="http://www.w3.org/2000/svg" xmlns:xlink="http://www.w3.org/1999/xlink" x="0px" y="0px"
	 viewBox="0 0 468 447" enable-background="new 0 0 468 447" xml:space="preserve">
<rect x="-13.6" y="-10.7" fill="#9B59B6" width="493.5" height="474.8"/>
<g>
	<circle fill="#FFFFFF" cx="230.9" cy="271" r="133.4"/>
	<g id="DNA_molecule">
		<path fill="#25AC9B" d="M169.9,244.5c9.9,22.8,32.7,38.9,59.1,38.9l0,0h40.6v0c0,0,0,0,0.1,0c9.1,0,17.3,4.3,22.5,11
			c-9.9-22.8-32.7-38.9-59.1-38.9l0,0h-40.6l0,0c0,0,0,0-0.1,0C183.3,255.5,175.2,251.2,169.9,244.5z"/>
		<path fill="#F04A8A" d="M292.2,294.3c3.4,7.8,5.3,16.5,5.3,25.5V354c0,7.7-6.2,13.9-13.9,13.9c-7.7,0-13.9-6.2-13.9-13.9v-5.1
			v-29.1l0-36.5l0.1,0C278.8,283.3,287,287.6,292.2,294.3z"/>
		<path fill="#2E3959" d="M258.6,260.7c15,6.5,27.1,18.6,33.6,33.6c-5.2-6.7-13.3-11-22.5-11C269.7,274.1,265.3,265.9,258.6,260.7z"
			/>
		<path fill="#287CBC" d="M170,244.5c-3.4-7.8-5.3-16.5-5.3-25.5v-32c0-7.7,6.2-13.9,13.9-13.9c7.7,0,13.9,6.2,13.9,13.9l0,5.1
			l0,26.9v36.5h-0.1C183.3,255.5,175.2,251.2,170,244.5z"/>
		<path fill="#075681" d="M203.6,278.1c-15-6.5-27.1-18.6-33.6-33.6c5.2,6.7,13.3,11,22.5,11C192.4,264.7,196.8,272.9,203.6,278.1z"
			/>
		<g>
			<path fill="#E94B86" d="M205.5,208.9c22.8,9.9,38.9,32.7,38.9,59.1l0,0l0,40.6l0,0c0,0,0,0,0,0.1c0,9.1,4.3,17.3,11,22.5
				c-22.8-9.9-38.9-32.7-38.9-59.1l0,0v-40.6l0,0c0,0,0,0,0-0.1C216.6,222.2,212.2,214.1,205.5,208.9z"/>
			<path fill="#2B3B5C" d="M229,283.3h15.3l0-15.3l0,0c0-4-0.4-7.9-1.1-11.7c-3.3-0.5-6.7-0.8-10.2-0.8l0,0h-16.5V272l0,0
				c0,3.5,0.3,6.9,0.8,10.2C221.1,283,225,283.3,229,283.3L229,283.3z"/>
			<path fill="#ECB004" d="M255.3,331c7.8,3.4,16.5,5.3,25.5,5.3l34.2,0c7.7,0,13.9-6.2,13.9-13.9c0-7.7-6.2-13.9-13.9-13.9l-5.1,0
				l-29.1,0l-36.5,0v0.1C244.3,317.7,248.6,325.8,255.3,331z"/>
			<path fill="#CA2300" d="M297.4,320.1c0-3.9-0.4-7.8-1-11.6l-15.2,0h-11.6v11.6v15.2c3.8,0.7,7.6,1,11.6,1h16.3V320.1z"/>
			<path fill="#C62101" d="M221.8,297.5c6.5,15,18.6,27.1,33.6,33.6c-6.7-5.2-11-13.3-11-22.5C235.2,308.6,227,304.3,221.8,297.5z"
				/>
			<path fill="#FE7702" d="M205.6,208.9c-7.8-3.4-16.5-5.3-25.5-5.3h-32c-7.7,0-13.9,6.2-13.9,13.9c0,7.7,6.2,13.9,13.9,13.9l5.1,0
				l26.9,0h36.5l0-0.1C216.6,222.2,212.3,214.1,205.6,208.9z"/>
			<path fill="#295C00" d="M192.5,219l0-14.1c-4-0.8-8.2-1.2-12.5-1.2h-15.4V219c0,4.3,0.4,8.4,1.2,12.5H180h12.5V219z"/>
			<path fill="#B52A8F" d="M239.1,242.5c-6.5-15-18.6-27.1-33.6-33.6c6.7,5.2,11,13.3,11,22.5C225.8,231.4,233.9,235.7,239.1,242.5z
				"/>
		</g>
	</g>
</g>
<text transform="matrix(1 0 0 1 32.4106 99.1416)" fill="#FFFFFF" font-family="'GeomaThinDemo'" font-size="104.6483">BIOGAM</text>
</svg>
