<?xml version="1.0" encoding="utf-8"?>
<!-- Generator: Adobe Illustrator 18.0.0, SVG Export Plug-In . SVG Version: 6.00 Build 0)  -->
<!DOCTYPE svg PUBLIC "-//W3C//DTD SVG 1.1//EN" "http://www.w3.org/Graphics/SVG/1.1/DTD/svg11.dtd">
<svg version="1.1" id="Capa_1" xmlns="http://www.w3.org/2000/svg" xmlns:xlink="http://www.w3.org/1999/xlink" x="0px" y="0px"
	 viewBox="0 0 640 1136" enable-background="new 0 0 640 1136" xml:space="preserve">
<rect fill="#9B59B6" width="640" height="1136"/>
<g>
	<circle fill="#FFFFFF" cx="326" cy="485.3" r="133.4"/>
	<g id="DNA_molecule">
		<path fill="#25AC9B" d="M265,458.8c9.9,22.8,32.7,38.9,59.1,38.9l0,0h40.6v0c0,0,0,0,0.1,0c9.1,0,17.3,4.3,22.5,11
			c-9.9-22.8-32.7-38.9-59.1-38.9l0,0h-40.6l0,0c0,0,0,0-0.1,0C278.3,469.8,270.2,465.5,265,458.8z"/>
		<path fill="#F04A8A" d="M387.2,508.6c3.4,7.8,5.3,16.5,5.3,25.5v34.2c0,7.7-6.2,13.9-13.9,13.9c-7.7,0-13.9-6.2-13.9-13.9v-5.1
			v-29.1l0-36.5l0.1,0C373.9,497.6,382,501.9,387.2,508.6z"/>
		<path fill="#2E3959" d="M353.6,475c15,6.5,27.1,18.6,33.6,33.6c-5.2-6.7-13.3-11-22.5-11C364.8,488.4,360.4,480.2,353.6,475z"/>
		<path fill="#287CBC" d="M265,458.8c-3.4-7.8-5.3-16.5-5.3-25.5v-32c0-7.7,6.2-13.9,13.9-13.9c7.7,0,13.9,6.2,13.9,13.9l0,5.1
			l0,26.9v36.5h-0.1C278.3,469.8,270.2,465.5,265,458.8z"/>
		<path fill="#075681" d="M298.6,492.4c-15-6.5-27.1-18.6-33.6-33.6c5.2,6.7,13.3,11,22.5,11C287.5,479,291.9,487.2,298.6,492.4z"/>
		<g>
			<path fill="#E94B86" d="M300.6,423.2c22.8,9.9,38.9,32.7,38.9,59.1l0,0l0,40.6l0,0c0,0,0,0,0,0.1c0,9.1,4.3,17.3,11,22.5
				c-22.8-9.9-38.9-32.7-38.9-59.1l0,0v-40.6l0,0c0,0,0,0,0-0.1C311.6,436.5,307.3,428.4,300.6,423.2z"/>
			<path fill="#2B3B5C" d="M324.1,497.6h15.3l0-15.3l0,0c0-4-0.4-7.9-1.1-11.7c-3.3-0.5-6.7-0.8-10.2-0.8l0,0h-16.5v16.5l0,0
				c0,3.5,0.3,6.9,0.8,10.2C316.2,497.3,320.1,497.6,324.1,497.6L324.1,497.6z"/>
			<path fill="#ECB004" d="M350.4,545.3c7.8,3.4,16.5,5.3,25.5,5.3l34.2,0c7.7,0,13.9-6.2,13.9-13.9c0-7.7-6.2-13.9-13.9-13.9
				l-5.1,0l-29.1,0l-36.5,0v0.1C339.3,532,343.7,540.1,350.4,545.3z"/>
			<path fill="#CA2300" d="M392.4,534.4c0-3.9-0.4-7.8-1-11.6l-15.2,0h-11.6v11.6v15.2c3.8,0.7,7.6,1,11.6,1h16.3V534.4z"/>
			<path fill="#C62101" d="M316.9,511.8c6.5,15,18.6,27.1,33.6,33.6c-6.7-5.2-11-13.3-11-22.5C330.2,522.9,322.1,518.6,316.9,511.8z
				"/>
			<path fill="#FE7702" d="M300.6,423.2c-7.8-3.4-16.5-5.3-25.5-5.3h-32c-7.7,0-13.9,6.2-13.9,13.9c0,7.7,6.2,13.9,13.9,13.9l5.1,0
				l26.9,0h36.5l0-0.1C311.6,436.5,307.3,428.4,300.6,423.2z"/>
			<path fill="#295C00" d="M287.5,433.2l0-14.1c-4-0.8-8.2-1.2-12.5-1.2h-15.4v15.4c0,4.3,0.4,8.4,1.2,12.5h14.1h12.5V433.2z"/>
			<path fill="#B52A8F" d="M334.2,456.8c-6.5-15-18.6-27.1-33.6-33.6c6.7,5.2,11,13.3,11,22.5C320.8,445.7,329,450,334.2,456.8z"/>
		</g>
	</g>
</g>
<text transform="matrix(1 0 0 1 109.9971 298.6392)" fill="#FFFFFF" font-family="'GeomaThinDemo'" font-size="116.782">BIOGAM</text>
</svg>
